<svg preserveAspectRatio="none" overflow="visible" style="display: block;" width="22" height="22" viewBox="0 0 22 22" fill="none" xmlns="http://www.w3.org/2000/svg">
<g id="Check">
<path id="Vector" d="M19.4425 4.84917C19.3573 4.76325 19.2559 4.69505 19.1442 4.64852C19.0325 4.60198 18.9127 4.57802 18.7917 4.57802C18.6707 4.57802 18.5508 4.60198 18.4391 4.64852C18.3274 4.69505 18.226 4.76325 18.1408 4.84917L7.79167 15.2075L3.85917 11.2658C3.68655 11.0932 3.45244 10.9962 3.20833 10.9962C2.96422 10.9962 2.73011 11.0932 2.5575 11.2658C2.38489 11.4384 2.28792 11.6726 2.28792 11.9167C2.28792 12.1608 2.38489 12.3949 2.5575 12.5675L7.14083 17.1508C7.22605 17.2368 7.32743 17.3049 7.43914 17.3515C7.55084 17.398 7.67066 17.422 7.79167 17.422C7.91268 17.422 8.03249 17.398 8.14419 17.3515C8.2559 17.3049 8.35728 17.2368 8.4425 17.1508L19.4425 6.15083C19.5284 6.06562 19.5966 5.96423 19.6432 5.85253C19.6897 5.74082 19.7136 5.62101 19.7136 5.5C19.7136 5.37899 19.6897 5.25918 19.6432 5.14747C19.5966 5.03577 19.5284 4.93438 19.4425 4.84917Z" fill="black"/>
</g>
</svg>
