<svg preserveAspectRatio="none" overflow="visible" style="display: block;" width="20" height="20" viewBox="0 0 20 20" fill="none" xmlns="http://www.w3.org/2000/svg">
<g id="SVG">
<path id="Vector" fill-rule="evenodd" clip-rule="evenodd" d="M4 5C2.89617 5 2 5.89617 2 7V15C2 16.1038 2.89617 17 4 17H16C17.1038 17 18 16.1038 18 15V7C18 5.89617 17.1038 5 16 5H14.414C14.1488 4.99994 13.8945 4.89455 13.707 4.707L12.586 3.586C12.211 3.2109 11.7024 3.00011 11.172 3H8.828C8.29761 3.00011 7.78899 3.2109 7.414 3.586L6.293 4.707C6.10551 4.89455 5.85119 4.99994 5.586 5H4V5M10 14C11.6557 14 13 12.6557 13 11C13 9.34425 11.6557 8 10 8C8.34425 8 7 9.34425 7 11C7 12.6557 8.34425 14 10 14V14" fill="white"/>
</g>
</svg>
